<?xml version="1.0" standalone="no"?>
<!DOCTYPE svg PUBLIC "-//W3C//DTD SVG 20010904//EN"
 "http://www.w3.org/TR/2001/REC-SVG-20010904/DTD/svg10.dtd">
<svg version="1.0" xmlns="http://www.w3.org/2000/svg"
 width="268.000000pt" height="375.000000pt" viewBox="0 0 268.000000 375.000000"
 preserveAspectRatio="xMidYMid meet">

<g transform="translate(0.000000,375.000000) scale(0.100000,-0.100000)"
fill="#000000" stroke="none">
<path d="M1195 3739 c-94 -13 -221 -56 -325 -110 -812 -418 -1125 -1807 -634
-2814 201 -414 509 -692 870 -786 128 -34 340 -34 468 0 547 143 960 704 1078
1466 31 201 31 559 0 760 -148 954 -765 1583 -1457 1484z m395 -69 c183 -53
345 -153 500 -309 263 -264 439 -641 517 -1106 14 -88 18 -165 18 -380 0 -280
-8 -368 -55 -571 -124 -535 -428 -971 -805 -1155 -163 -79 -231 -94 -425 -94
-143 0 -176 3 -245 23 -534 155 -934 730 -1029 1480 -21 162 -21 472 0 634 98
775 528 1369 1080 1492 103 23 344 16 444 -14z"/>
<path d="M1314 3599 c-10 -17 13 -36 27 -22 12 12 4 33 -11 33 -5 0 -12 -5
-16 -11z"/>
<path d="M1290 3540 c0 -5 5 -10 10 -10 15 0 13 -203 -2 -218 -9 -9 -2 -12 35
-12 43 0 63 13 35 22 -8 3 -13 38 -16 102 -4 86 -2 99 14 111 17 13 15 14 -28
15 -27 0 -48 -4 -48 -10z"/>
<path d="M1148 3528 c-27 -9 -40 -31 -16 -25 11 2 63 -141 54 -150 -2 -2 -34
29 -71 70 -66 74 -67 75 -100 64 -19 -5 -32 -14 -29 -19 3 -4 9 -6 14 -3 5 3
23 -41 40 -97 21 -67 28 -104 21 -106 -25 -8 -10 -24 17 -17 32 8 53 25 31 25
-11 0 -23 23 -37 74 -12 41 -22 77 -22 80 0 3 32 -28 71 -69 75 -79 76 -80 97
-66 11 7 7 29 -19 117 -22 74 -28 109 -20 112 12 4 16 22 4 21 -5 0 -20 -5
-35 -11z"/>
<path d="M1490 3531 c0 -5 5 -11 11 -13 14 -5 -44 -203 -59 -203 -21 0 -23
-13 -3 -19 12 -3 30 -9 42 -12 14 -4 19 -1 18 8 -6 26 12 88 25 88 8 0 17 -20
23 -50 6 -27 6 -50 2 -50 -5 0 -9 -4 -9 -9 0 -5 18 -13 40 -19 39 -10 49 -6
31 13 -4 6 -16 41 -25 79 -19 77 -19 78 56 113 38 18 49 33 26 33 -7 0 -23 3
-36 6 -17 5 -21 3 -17 -8 4 -10 -9 -24 -35 -42 -23 -15 -44 -25 -47 -22 -10 9
19 76 33 76 28 0 13 17 -25 28 -46 14 -51 15 -51 3z"/>
<path d="M843 3391 c-26 -22 -30 -36 -8 -27 17 6 19 -13 7 -77 l-7 -39 -23 31
c-15 20 -21 39 -17 51 9 27 -4 25 -45 -10 -29 -25 -32 -30 -15 -30 25 -1 140
-153 131 -175 -7 -20 0 -19 35 6 26 18 43 49 20 34 -10 -6 -61 55 -61 73 0 16
98 -27 102 -45 2 -12 8 -11 31 7 15 12 27 26 27 32 0 6 -3 9 -6 5 -3 -3 -36 7
-72 23 l-67 29 0 65 c0 36 -2 66 -5 66 -3 -1 -15 -9 -27 -19z"/>
<path d="M1898 3327 c9 -10 -1 -26 -44 -68 -52 -51 -84 -95 -84 -118 0 -5 12
-23 26 -40 43 -51 77 -44 154 34 36 36 73 65 84 65 18 0 18 2 -4 25 -26 27
-43 33 -38 12 4 -17 -97 -134 -122 -142 -27 -8 -60 12 -60 36 0 26 119 152
137 145 23 -9 14 22 -13 43 -30 24 -53 28 -36 8z"/>
<path d="M1960 3324 c0 -9 7 -14 17 -12 25 5 28 28 4 28 -12 0 -21 -6 -21 -16z"/>
<path d="M2017 3294 c-14 -14 -7 -35 11 -32 9 2 17 10 17 17 0 16 -18 25 -28
15z"/>
<path d="M599 3162 c-61 -77 -64 -82 -41 -79 28 3 173 -118 165 -139 -4 -10
-2 -15 4 -13 14 5 103 115 103 127 0 5 -9 17 -20 27 -27 24 -48 7 -29 -23 10
-17 10 -24 -5 -46 l-17 -26 -39 31 c-29 24 -37 35 -30 45 6 6 20 10 30 7 30
-8 24 13 -10 37 -30 21 -34 20 -31 -12 3 -29 -17 -29 -49 -1 l-32 29 20 24
c18 21 24 23 40 13 16 -10 23 -9 31 1 8 9 3 18 -18 33 l-28 21 -44 -56z"/>
<path d="M1243 3165 c-111 -25 -189 -70 -289 -170 -49 -49 -107 -116 -128
-148 -356 -547 -340 -1485 34 -1992 58 -78 181 -187 252 -223 35 -18 101 -40
146 -49 75 -15 89 -15 161 -1 125 25 201 68 307 173 99 99 144 162 209 293
116 235 175 514 175 827 0 377 -91 722 -256 972 -53 79 -164 195 -231 239
-114 75 -262 106 -380 79z m208 -51 c293 -87 522 -448 595 -940 22 -146 22
-451 1 -596 -30 -197 -80 -364 -155 -513 -63 -126 -114 -199 -197 -280 -223
-219 -487 -219 -710 0 -180 176 -306 463 -356 815 -16 110 -16 440 0 550 49
346 176 637 351 811 145 143 316 199 471 153z"/>
<path d="M1434 2668 c-186 -181 -294 -407 -294 -615 0 -58 -3 -73 -15 -73 -10
0 -15 10 -15 31 0 21 -10 40 -30 61 -28 28 -35 30 -92 26 -62 -3 -63 -3 -68
25 l-5 28 -34 -25 c-26 -20 -37 -23 -51 -14 -14 9 -26 4 -68 -32 -59 -51 -60
-65 -2 -26 53 35 71 33 35 -4 -32 -34 -27 -38 16 -13 44 26 54 8 34 -62 -20
-68 -14 -113 20 -145 27 -25 79 -32 124 -16 37 13 22 -9 -34 -52 -32 -24 -52
-48 -57 -67 -36 -144 -46 -190 -42 -197 3 -4 14 -8 25 -8 14 0 19 7 19 28 0
15 9 61 20 102 15 60 26 82 54 108 49 44 68 40 24 -5 -27 -29 -37 -50 -43 -88
-3 -27 -13 -72 -21 -99 -19 -65 -18 -83 5 -95 17 -9 21 1 50 117 26 106 36
131 58 149 16 13 36 23 45 23 27 0 32 -20 8 -37 -18 -13 -21 -21 -15 -52 4
-20 11 -76 15 -125 5 -57 12 -91 21 -97 8 -4 17 -5 20 -1 3 4 2 61 -3 127 l-9
120 26 23 c46 39 64 23 20 -18 -14 -13 -23 -31 -21 -39 3 -9 7 -64 11 -123 6
-98 9 -108 27 -108 18 0 19 5 13 118 l-7 117 36 38 c57 62 74 32 31 -53 -18
-36 -23 -55 -16 -72 17 -46 32 -156 39 -295 8 -132 10 -145 33 -169 54 -58 85
-51 42 9 -24 34 -26 48 -34 184 -4 82 -13 185 -20 230 -10 63 -10 87 -1 107
19 43 35 32 28 -18 -4 -25 0 -92 8 -153 9 -59 17 -153 20 -208 4 -85 9 -110
35 -167 26 -57 35 -68 56 -68 32 0 31 6 -6 65 -26 41 -32 64 -41 147 -6 54 -8
101 -5 105 3 3 13 -2 22 -11 9 -9 21 -16 26 -16 5 0 9 -11 9 -24 0 -14 11 -38
25 -54 14 -17 25 -41 25 -54 0 -43 38 -68 103 -68 102 0 165 48 139 105 -8 16
-4 27 14 48 27 31 30 54 13 91 -10 20 -9 28 6 42 18 18 35 56 35 78 0 7 -12
30 -26 51 -22 33 -24 41 -14 66 7 15 9 41 5 58 -6 30 -56 81 -78 81 -8 0 -12
16 -12 39 0 50 -33 87 -88 102 l-39 10 53 36 c108 70 161 136 204 253 65 180
32 473 -57 504 -22 8 -36 2 -94 -37 l-69 -46 -13 52 c-32 127 -32 127 -54 127
-12 0 -54 -32 -104 -82z m125 -36 l20 -82 -70 -72 c-123 -126 -214 -290 -243
-440 l-11 -58 -42 0 -43 0 0 68 c0 150 69 333 180 481 53 70 178 196 186 188
2 -2 12 -40 23 -85z m214 -20 c29 -32 48 -105 54 -204 11 -179 -33 -305 -142
-413 -92 -90 -249 -165 -347 -165 -36 0 -37 25 -3 126 50 148 158 277 291 346
89 46 71 48 -22 2 -130 -64 -237 -177 -296 -313 -26 -59 -28 -62 -22 -26 30
198 121 373 267 512 65 62 181 151 198 152 3 1 13 -7 22 -17z m-870 -537 c-7
-19 -33 -20 -33 -1 0 15 20 26 32 19 4 -2 5 -10 1 -18z m159 -22 c44 -39 20
-146 -41 -177 -95 -50 -183 23 -137 112 40 78 127 109 178 65z m162 -109 c12
-5 16 -20 16 -60 0 -45 4 -56 23 -68 39 -25 90 -28 181 -10 142 28 140 -8 -5
-86 -65 -34 -87 -37 -97 -12 -4 9 -14 17 -22 17 -8 0 -19 9 -25 21 -8 16 -15
19 -30 13 -11 -4 -40 -8 -63 -8 -35 -1 -45 3 -49 18 -4 15 -14 18 -56 17 -51
-1 -52 0 -55 29 -8 78 106 158 182 129z m410 -160 c26 -25 19 -52 -27 -97 -77
-78 -183 -110 -211 -64 -16 25 1 46 65 79 29 16 69 44 89 63 38 38 60 43 84
19z m90 -140 c26 -25 19 -60 -16 -90 -66 -55 -207 -104 -262 -90 -15 4 -32 17
-38 31 -18 40 8 68 78 83 33 7 86 28 119 46 67 39 96 44 119 20z m30 -160 c52
-51 -39 -128 -185 -155 -79 -14 -122 0 -127 41 -4 40 11 51 86 65 38 8 92 25
119 39 56 29 85 32 107 10z m-16 -187 c3 -24 -2 -30 -40 -47 -53 -24 -159 -27
-178 -5 -26 31 -8 50 57 58 34 4 72 12 85 17 42 17 73 8 76 -23z m-30 -120 c7
-37 -111 -63 -143 -31 -23 24 -3 42 53 47 72 6 87 3 90 -16z"/>
<path d="M942 2018 c-21 -21 -14 -56 14 -75 24 -15 29 -15 53 -2 31 17 38 50
16 73 -19 19 -66 21 -83 4z m53 -28 c0 -22 -29 -18 -33 3 -3 14 1 18 15 15 10
-2 18 -10 18 -18z"/>
<path d="M2082 3133 c4 -23 -150 -134 -175 -127 -16 5 -17 3 -8 -13 5 -11 18
-26 27 -34 16 -12 17 -12 12 2 -5 12 11 29 58 63 35 25 67 46 69 46 3 0 -17
-42 -45 -93 -38 -72 -47 -96 -38 -105 7 -7 15 -12 20 -12 4 0 45 27 92 60 54
39 89 58 100 54 20 -8 20 0 0 31 -17 26 -37 34 -28 12 3 -8 -22 -32 -61 -60
-36 -26 -65 -44 -65 -39 0 4 21 45 45 90 45 83 45 84 28 113 -19 32 -36 39
-31 12z"/>
<path d="M457 2950 l-45 -79 25 -16 c13 -9 32 -14 40 -10 14 5 13 9 -5 28 -14
14 -18 27 -13 36 7 10 29 2 99 -40 79 -45 90 -55 81 -71 -6 -12 -6 -18 0 -18
6 0 22 23 36 50 14 28 21 50 15 50 -5 0 -10 -4 -10 -10 0 -5 -5 -10 -11 -10
-13 0 -179 93 -179 100 0 3 4 11 9 19 6 10 13 11 29 2 31 -17 41 8 12 31 -12
10 -26 18 -30 18 -4 0 -28 -36 -53 -80z"/>
<path d="M2230 2897 c0 -18 -168 -99 -191 -92 -23 8 -23 5 -2 -40 17 -36 33
-46 33 -20 0 22 180 111 191 94 17 -28 19 0 3 35 -18 36 -34 47 -34 23z"/>
<path d="M2284 2899 c-10 -17 13 -36 27 -22 12 12 4 33 -11 33 -5 0 -12 -5
-16 -11z"/>
<path d="M2283 2781 c-6 -10 -50 -47 -97 -82 -47 -34 -86 -66 -86 -69 0 -3 4
-11 9 -18 7 -11 29 -12 122 -4 86 8 117 8 128 -1 12 -10 13 -7 7 18 -9 36 -26
57 -26 32 0 -9 -8 -17 -17 -17 -10 -1 -49 -5 -88 -10 -38 -5 -71 -7 -73 -6 -1
2 29 27 68 56 56 42 74 50 80 39 15 -24 21 -4 9 32 -16 46 -22 52 -36 30z"/>
<path d="M497 2656 c-4 -9 5 -19 24 -26 24 -11 28 -16 23 -39 -4 -14 -9 -29
-13 -33 -3 -4 -49 8 -101 26 -83 29 -95 36 -92 55 5 32 -7 25 -24 -14 -17 -43
-19 -74 -3 -58 9 9 36 3 108 -23 53 -19 97 -34 98 -34 1 0 3 -8 5 -17 2 -10
16 18 31 61 15 44 26 80 24 81 -5 5 -66 35 -70 35 -3 0 -7 -6 -10 -14z"/>
<path d="M2379 2554 c-1 -5 -1 -12 -1 -15 1 -3 -44 -18 -100 -33 -80 -21 -103
-24 -109 -14 -15 24 -20 0 -10 -41 6 -23 16 -59 21 -80 10 -36 12 -39 38 -32
15 4 28 15 30 25 3 13 -1 16 -22 10 -22 -5 -26 -2 -34 28 -9 33 -8 33 35 46
51 15 63 10 44 -19 -16 -27 -10 -32 33 -24 39 8 48 24 16 32 -32 9 -23 31 17
42 41 12 48 8 57 -31 5 -21 2 -28 -14 -33 -11 -3 -20 -13 -20 -22 0 -12 7 -14
32 -9 17 3 33 7 34 9 4 3 -36 160 -42 166 -2 2 -5 0 -5 -5z"/>
<path d="M277 2507 c-11 -29 -9 -63 4 -50 11 11 162 -21 187 -40 17 -13 15
-52 -3 -67 -13 -10 -31 -10 -98 5 -45 9 -88 24 -94 33 -16 20 -20 16 -29 -33
-6 -34 -5 -38 7 -29 10 9 33 7 89 -7 97 -23 116 -23 140 1 26 26 27 90 3 113
-10 8 -57 25 -105 37 -61 16 -88 27 -90 39 -3 14 -5 14 -11 -2z"/>
<path d="M2431 2329 c-1 -13 -17 -20 -63 -28 -142 -24 -150 -24 -159 -10 -10
17 -12 -23 -3 -58 6 -23 26 -33 21 -11 -2 12 80 34 90 24 9 -9 -17 -35 -58
-58 -39 -21 -53 -58 -29 -73 6 -3 10 -2 10 2 0 5 21 24 46 42 42 29 48 31 63
17 23 -21 75 -20 96 1 14 13 16 27 10 71 -7 58 -23 111 -24 81z m7 -82 c9 -44
-66 -67 -88 -28 -16 31 -12 39 23 44 49 6 61 3 65 -16z"/>
<path d="M230 2220 c-6 -10 -12 -47 -15 -82 -3 -35 -3 -57 1 -50 7 15 24 15
136 1 69 -9 88 -15 89 -28 0 -10 4 -7 10 9 5 13 9 51 7 84 -3 56 -5 62 -33 75
-26 12 -33 12 -58 -3 -27 -15 -31 -15 -47 -1 -24 22 -77 19 -90 -5z m84 -36
c29 -29 20 -44 -28 -44 -50 0 -62 10 -46 40 13 24 52 26 74 4z m124 -32 l3
-33 -48 7 c-26 3 -49 8 -51 9 -1 1 2 14 8 29 9 24 15 27 47 24 35 -3 38 -6 41
-36z"/>
<path d="M2382 2080 c-13 -6 -31 -28 -41 -53 -24 -56 -55 -71 -84 -42 -21 20
-10 54 19 61 31 8 31 34 1 34 -34 0 -47 -19 -47 -67 0 -51 26 -83 68 -83 31 0
61 27 83 75 11 24 21 30 44 30 25 0 30 -4 30 -25 0 -18 -6 -26 -22 -28 -29 -4
-32 -42 -4 -42 53 0 70 82 26 125 -26 27 -37 29 -73 15z"/>
<path d="M201 2000 c0 -40 1 -43 13 -27 14 18 85 22 134 9 20 -6 10 -13 -62
-49 -85 -42 -86 -43 -86 -80 0 -26 3 -34 9 -24 11 17 212 16 222 -1 4 -5 9 5
12 23 5 34 -2 55 -10 32 -3 -9 -31 -13 -91 -13 l-86 0 97 47 c81 39 97 51 95
68 -3 19 -11 20 -112 23 -89 2 -112 6 -122 20 -12 15 -13 11 -13 -28z"/>
<path d="M2238 1894 c-12 -11 -10 -84 2 -84 6 0 10 5 10 10 0 15 203 13 218
-2 9 -9 12 -1 12 38 -1 38 -3 45 -11 32 -8 -15 -25 -18 -114 -18 -87 0 -104 3
-107 16 -2 9 -6 12 -10 8z"/>
<path d="M2507 1854 c-9 -10 2 -24 19 -24 8 0 14 7 14 15 0 15 -21 21 -33 9z"/>
<path d="M424 1790 c-5 -5 -55 -26 -110 -47 -56 -21 -102 -41 -102 -45 -6 -30
4 -36 101 -57 56 -13 112 -29 125 -37 21 -14 22 -13 22 21 0 19 -4 35 -10 35
-5 0 -10 -4 -10 -10 0 -5 -9 -10 -19 -10 -38 0 -51 11 -51 44 0 26 6 35 27 45
19 9 29 9 31 2 9 -26 22 -8 22 29 0 40 -7 49 -26 30z m-74 -105 c0 -27 -7 -29
-61 -18 l-34 6 40 18 c53 23 55 23 55 -6z"/>
<path d="M2410 1756 c0 -8 10 -16 23 -18 25 -3 33 -44 7 -41 -8 1 -54 4 -102
8 -78 6 -88 9 -88 26 0 10 -4 19 -10 19 -5 0 -10 -11 -10 -24 0 -13 -3 -38 -6
-55 -4 -20 -3 -31 5 -31 6 0 11 7 11 16 0 14 11 15 88 9 48 -4 95 -9 105 -12
26 -7 17 -38 -11 -37 -15 0 -22 -5 -22 -18 0 -14 8 -18 35 -18 33 0 35 2 35
34 0 18 3 61 6 95 l7 61 -37 0 c-24 0 -36 -5 -36 -14z"/>
<path d="M2216 1570 c-6 -18 -26 -153 -23 -156 1 0 17 -4 35 -7 27 -6 32 -4
32 13 0 13 -7 20 -20 20 -16 0 -20 7 -20 35 0 32 3 35 28 35 42 0 72 -11 72
-26 0 -8 -7 -14 -15 -14 -8 0 -15 -7 -15 -15 0 -8 6 -15 13 -15 6 0 22 -3 35
-6 16 -5 22 -2 22 10 0 9 -4 16 -10 16 -5 0 -10 7 -10 15 0 17 55 21 80 5 23
-14 0 -66 -28 -63 -16 2 -22 -3 -22 -17 0 -16 7 -20 33 -20 l33 0 12 77 c12
72 9 101 -6 76 -10 -15 -200 17 -212 37 -8 13 -10 13 -14 0z"/>
<path d="M238 1543 c-22 -5 -21 0 -3 -96 8 -43 15 -81 15 -84 0 -2 15 -3 33
-1 20 2 32 8 32 18 0 10 -8 14 -23 12 -20 -3 -42 21 -30 34 3 2 49 13 103 23
95 18 98 18 102 0 7 -27 26 -23 20 4 -3 12 -9 39 -13 60 -6 37 -19 43 -19 9 0
-12 -21 -20 -95 -33 -52 -10 -98 -18 -102 -18 -18 -2 -6 38 12 44 11 3 20 13
20 21 0 14 -18 16 -52 7z"/>
<path d="M424 1346 c-32 -14 -44 -33 -44 -70 0 -59 -72 -91 -78 -34 -2 19 2
28 17 33 25 8 27 23 4 32 -27 11 -53 -31 -43 -69 15 -49 40 -71 74 -64 41 8
54 23 62 65 9 49 20 68 44 76 46 15 68 -44 26 -67 -16 -9 -21 -18 -17 -30 10
-30 55 0 59 39 3 32 -21 93 -37 93 -5 0 -15 2 -23 5 -7 2 -27 -2 -44 -9z"/>
<path d="M2192 1353 c-18 -7 -42 -57 -42 -88 0 -34 33 -65 70 -65 20 0 43 12
70 36 47 42 85 44 85 4 0 -19 -6 -26 -25 -29 -24 -3 -39 -16 -40 -33 0 -5 13
-8 29 -8 36 0 61 31 61 75 0 36 -8 48 -37 64 -35 18 -52 13 -94 -29 -45 -45
-40 -43 -73 -30 -45 17 -23 79 23 67 13 -3 21 1 24 14 6 23 -20 35 -51 22z"/>
<path d="M538 1174 c-4 -23 -189 -89 -199 -72 -17 27 -18 -1 -2 -41 13 -33 18
-39 23 -26 9 25 188 89 206 74 17 -14 17 -7 2 42 -12 41 -24 50 -30 23z"/>
<path d="M2112 1151 c-15 -49 -15 -56 2 -42 19 16 197 -48 206 -74 5 -15 10
-9 23 28 9 26 12 47 6 47 -5 0 -9 -5 -9 -11 0 -12 -13 -9 -122 33 -47 18 -78
35 -78 44 0 28 -17 13 -28 -25z"/>
<path d="M285 1060 c-3 -5 -4 -14 0 -20 8 -13 35 -1 35 16 0 16 -26 19 -35 4z"/>
<path d="M2360 1046 c0 -10 9 -16 21 -16 24 0 21 23 -4 28 -10 2 -17 -3 -17
-12z"/>
<path d="M1055 449 l-30 -19 28 0 27 0 0 -85 c0 -85 0 -85 -26 -85 -14 0 -23
-4 -19 -10 8 -13 115 -13 115 0 0 6 -9 10 -21 10 -19 0 -20 5 -17 105 3 116 0
121 -57 84z"/>
<path d="M1532 458 c-19 -19 -15 -48 7 -48 13 0 21 8 23 23 5 35 32 27 36 -10
2 -24 -2 -35 -17 -45 -26 -16 -27 -28 -2 -28 23 0 35 -31 27 -66 -8 -31 -43
-33 -48 -2 -4 29 -38 37 -38 9 0 -51 65 -67 105 -26 30 29 32 58 6 84 -17 17
-18 21 -5 32 17 14 18 61 2 77 -7 7 -28 12 -48 12 -20 0 -41 -5 -48 -12z"/>
<path d="M1176 378 c-9 -36 -7 -48 9 -48 8 0 15 9 15 20 0 17 7 20 40 20 l39
0 -33 -77 c-49 -115 -51 -123 -29 -123 15 0 25 21 51 105 18 57 32 109 32 115
0 6 -25 10 -59 10 -52 0 -59 -2 -65 -22z"/>
<path d="M1350 365 c0 -24 5 -35 15 -35 8 0 15 9 15 20 0 16 7 20 35 20 19 0
35 -1 35 -3 0 -2 -16 -42 -35 -90 -19 -48 -35 -91 -35 -97 0 -14 30 -12 34 3
2 6 18 56 35 109 17 53 31 99 31 102 0 3 -29 6 -65 6 l-65 0 0 -35z"/>
</g>
</svg>
